<svg class="animated" id="freepik_stories-report" xmlns="http://www.w3.org/2000/svg" viewBox="0 0 500 500" version="1.1" xmlns:xlink="http://www.w3.org/1999/xlink" xmlns:svgjs="http://svgjs.com/svgjs"><style>svg#freepik_stories-report:not(.animated) .animable {opacity: 0;}svg#freepik_stories-report.animated #freepik--Board--inject-62 {animation: 1.5s Infinite  linear floating;animation-delay: 0s;}            @keyframes floating {                0% {                    opacity: 1;                    transform: translateY(0px);                }                50% {                    transform: translateY(-10px);                }                100% {                    opacity: 1;                    transform: translateY(0px);                }            }        </style><g id="freepik--background-complete--inject-62" class="animable" style="transform-origin: 250px 226.87px;"><rect y="382.4" width="500" height="0.25" style="fill: rgb(235, 235, 235); transform-origin: 250px 382.525px;" id="elcfxxb0astd4" class="animable"></rect><rect x="416.78" y="398.49" width="33.12" height="0.25" style="fill: rgb(235, 235, 235); transform-origin: 433.34px 398.615px;" id="el8etdez6ban4" class="animable"></rect><rect x="267.86" y="390.76" width="27.36" height="0.25" style="fill: rgb(235, 235, 235); transform-origin: 281.54px 390.885px;" id="eluogudkl1xjs" class="animable"></rect><rect x="396.59" y="389.21" width="19.19" height="0.25" style="fill: rgb(235, 235, 235); transform-origin: 406.185px 389.335px;" id="el1mv6tvcsjzx" class="animable"></rect><rect x="52.46" y="390.89" width="17.15" height="0.25" style="fill: rgb(235, 235, 235); transform-origin: 61.035px 391.015px;" id="eluygynxoe71" class="animable"></rect><rect x="78.51" y="390.89" width="32.38" height="0.25" style="fill: rgb(235, 235, 235); transform-origin: 94.7px 391.015px;" id="elzq92dssnmj" class="animable"></rect><rect x="164.78" y="395.11" width="60.37" height="0.25" style="fill: rgb(235, 235, 235); transform-origin: 194.965px 395.235px;" id="elxvsi62zgox" class="animable"></rect><path d="M237,337.8H43.91a5.71,5.71,0,0,1-5.7-5.71V60.66A5.71,5.71,0,0,1,43.91,55H237a5.71,5.71,0,0,1,5.71,5.71V332.09A5.71,5.71,0,0,1,237,337.8ZM43.91,55.2a5.46,5.46,0,0,0-5.45,5.46V332.09a5.46,5.46,0,0,0,5.45,5.46H237a5.47,5.47,0,0,0,5.46-5.46V60.66A5.47,5.47,0,0,0,237,55.2Z" style="fill: rgb(235, 235, 235); transform-origin: 140.46px 196.4px;" id="elqu2q2sz1s3c" class="animable"></path><path d="M453.31,337.8H260.21a5.72,5.72,0,0,1-5.71-5.71V60.66A5.72,5.72,0,0,1,260.21,55h193.1A5.71,5.71,0,0,1,459,60.66V332.09A5.71,5.71,0,0,1,453.31,337.8ZM260.21,55.2a5.47,5.47,0,0,0-5.46,5.46V332.09a5.47,5.47,0,0,0,5.46,5.46h193.1a5.47,5.47,0,0,0,5.46-5.46V60.66a5.47,5.47,0,0,0-5.46-5.46Z" style="fill: rgb(235, 235, 235); transform-origin: 356.75px 196.4px;" id="elnlpo8dhtjbd" class="animable"></path><rect x="64.35" y="238.02" width="16.95" height="139.82" style="fill: rgb(240, 240, 240); transform-origin: 72.825px 307.93px;" id="el8c7y2g1emxe" class="animable"></rect><rect x="66.7" y="377.84" width="162.79" height="4.56" style="fill: rgb(240, 240, 240); transform-origin: 148.095px 380.12px;" id="elmwsl2nhegvd" class="animable"></rect><g id="elmojjt408h1k"><rect x="81.31" y="238.02" width="150.54" height="139.82" style="fill: rgb(250, 250, 250); transform-origin: 156.58px 307.93px; transform: rotate(180deg);" class="animable"></rect></g><g id="elbjxjfxxehsg"><rect x="95.02" y="287.65" width="123.11" height="31.52" rx="5.16" style="fill: rgb(240, 240, 240); transform-origin: 156.575px 303.41px; transform: rotate(180deg);" class="animable"></rect></g><g id="elzraoosf5x8"><rect x="95.02" y="328.22" width="123.11" height="31.52" rx="5.16" style="fill: rgb(240, 240, 240); transform-origin: 156.575px 343.98px; transform: rotate(180deg);" class="animable"></rect></g><path d="M178.38,292.18H134.77a3.41,3.41,0,0,1-3.4-3.41h0a3.41,3.41,0,0,1,3.4-3.4h43.61a3.41,3.41,0,0,1,3.4,3.4h0A3.41,3.41,0,0,1,178.38,292.18Z" style="fill: rgb(250, 250, 250); transform-origin: 156.575px 288.775px;" id="elncvfc3hypud" class="animable"></path><g id="elbojzy308iin"><rect x="95.02" y="247.09" width="123.11" height="31.52" rx="5.16" style="fill: rgb(240, 240, 240); transform-origin: 156.575px 262.85px; transform: rotate(180deg);" class="animable"></rect></g><path d="M178.38,251.61H134.77a3.41,3.41,0,0,1-3.4-3.4h0a3.41,3.41,0,0,1,3.4-3.4h43.61a3.41,3.41,0,0,1,3.4,3.4h0A3.41,3.41,0,0,1,178.38,251.61Z" style="fill: rgb(250, 250, 250); transform-origin: 156.575px 248.21px;" id="elajdy40bx3p" class="animable"></path><path d="M178.38,332.74H134.77a3.41,3.41,0,0,1-3.4-3.4h0a3.41,3.41,0,0,1,3.4-3.4h43.61a3.41,3.41,0,0,1,3.4,3.4h0A3.41,3.41,0,0,1,178.38,332.74Z" style="fill: rgb(250, 250, 250); transform-origin: 156.575px 329.34px;" id="elaptv8ttjtjt" class="animable"></path><rect x="81.31" y="230.91" width="153.63" height="7.11" style="fill: rgb(240, 240, 240); transform-origin: 158.125px 234.465px;" id="el7np416rce6o" class="animable"></rect><g id="eljenu8ps18pq"><rect x="61.03" y="230.91" width="20.28" height="7.11" style="fill: rgb(230, 230, 230); transform-origin: 71.17px 234.465px; transform: rotate(180deg);" class="animable"></rect></g><rect x="68.56" y="71.5" width="350.69" height="117.8" style="fill: rgb(235, 235, 235); transform-origin: 243.905px 130.4px;" id="el6qyh1x291cp" class="animable"></rect><rect x="70.86" y="71.5" width="353.32" height="117.8" style="fill: rgb(245, 245, 245); transform-origin: 247.52px 130.4px;" id="el3iyhix9r4gh" class="animable"></rect><rect x="68.56" y="189.3" width="230.62" height="5.85" style="fill: rgb(235, 235, 235); transform-origin: 183.87px 192.225px;" id="eldbo1fbfvrql" class="animable"></rect><rect x="92.81" y="189.3" width="338.64" height="5.85" style="fill: rgb(245, 245, 245); transform-origin: 262.13px 192.225px;" id="elmftedl7bye8" class="animable"></rect><g id="el9t3g17j15xr"><rect x="195.86" y="-39.34" width="103.33" height="339.48" style="fill: rgb(250, 250, 250); transform-origin: 247.525px 130.4px; transform: rotate(90deg);" class="animable"></rect></g><polygon points="120.7 182.07 179.77 78.74 207.66 78.74 148.59 182.07 120.7 182.07" style="fill: rgb(255, 255, 255); transform-origin: 164.18px 130.405px;" id="ellew0hdgfu7c" class="animable"></polygon><polygon points="154.58 182.07 213.65 78.74 224.52 78.74 165.45 182.07 154.58 182.07" style="fill: rgb(255, 255, 255); transform-origin: 189.55px 130.405px;" id="ele7ez3g3y46d" class="animable"></polygon><polygon points="327.67 182.07 386.73 78.74 397.6 78.74 338.54 182.07 327.67 182.07" style="fill: rgb(255, 255, 255); transform-origin: 362.635px 130.405px;" id="elvf8y7dme65b" class="animable"></polygon><g id="elivaq72fuh6c"><rect x="365.16" y="129.96" width="103.33" height="0.88" style="fill: rgb(235, 235, 235); transform-origin: 416.825px 130.4px; transform: rotate(90deg);" class="animable"></rect></g><g id="elfenvlwd4k8w"><polygon points="425.82 87.12 75.13 87.12 74.5 81.55 425.18 81.55 425.82 87.12" style="fill: rgb(235, 235, 235); opacity: 0.5; transform-origin: 250.16px 84.335px;" class="animable"></polygon></g><g id="elf9uou9ed9ce"><polygon points="425.82 94.06 75.13 94.06 74.5 88.49 425.18 88.49 425.82 94.06" style="fill: rgb(235, 235, 235); opacity: 0.5; transform-origin: 250.16px 91.275px;" class="animable"></polygon></g><g id="elmgamtymhcf9"><polygon points="425.82 101.01 75.13 101.01 74.5 95.44 425.18 95.44 425.82 101.01" style="fill: rgb(235, 235, 235); opacity: 0.5; transform-origin: 250.16px 98.225px;" class="animable"></polygon></g><g id="el4jwrr9ntqpv"><polygon points="425.82 107.95 75.13 107.95 74.5 102.38 425.18 102.38 425.82 107.95" style="fill: rgb(235, 235, 235); opacity: 0.5; transform-origin: 250.16px 105.165px;" class="animable"></polygon></g><g id="el0ueylrepzgbs"><polygon points="425.82 114.9 75.13 114.9 74.5 109.33 425.18 109.33 425.82 114.9" style="fill: rgb(235, 235, 235); opacity: 0.5; transform-origin: 250.16px 112.115px;" class="animable"></polygon></g><g id="elnz5f78sofx"><polygon points="425.82 121.85 75.13 121.85 74.5 116.28 425.18 116.28 425.82 121.85" style="fill: rgb(235, 235, 235); opacity: 0.5; transform-origin: 250.16px 119.065px;" class="animable"></polygon></g><g id="eledkcwc30fl8"><polygon points="425.82 128.79 75.13 128.79 74.5 123.22 425.18 123.22 425.82 128.79" style="fill: rgb(235, 235, 235); opacity: 0.5; transform-origin: 250.16px 126.005px;" class="animable"></polygon></g><g id="elqk1255rqah"><polygon points="425.82 135.74 75.13 135.74 74.5 130.17 425.18 130.17 425.82 135.74" style="fill: rgb(235, 235, 235); opacity: 0.5; transform-origin: 250.16px 132.955px;" class="animable"></polygon></g><g id="elf7s4g7fb5o"><polygon points="425.82 142.68 75.13 142.68 74.5 137.11 425.18 137.11 425.82 142.68" style="fill: rgb(235, 235, 235); opacity: 0.5; transform-origin: 250.16px 139.895px;" class="animable"></polygon></g><g id="elt6561rv0qvg"><polygon points="425.82 149.63 75.13 149.63 74.5 144.06 425.18 144.06 425.82 149.63" style="fill: rgb(235, 235, 235); opacity: 0.5; transform-origin: 250.16px 146.845px;" class="animable"></polygon></g><g id="elzaz93fpk3c"><polygon points="425.82 156.57 75.13 156.57 74.5 151 425.18 151 425.82 156.57" style="fill: rgb(235, 235, 235); opacity: 0.5; transform-origin: 250.16px 153.785px;" class="animable"></polygon></g><g id="ell4og8e0kg5o"><polygon points="425.82 163.52 75.13 163.52 74.5 157.95 425.18 157.95 425.82 163.52" style="fill: rgb(235, 235, 235); opacity: 0.5; transform-origin: 250.16px 160.735px;" class="animable"></polygon></g><g id="elvq7sbiq5b6m"><polygon points="425.82 170.47 75.13 170.47 74.5 164.89 425.18 164.89 425.82 170.47" style="fill: rgb(235, 235, 235); opacity: 0.5; transform-origin: 250.16px 167.68px;" class="animable"></polygon></g><g id="el2pi4rh2dalh"><polygon points="425.82 177.41 75.13 177.41 74.5 171.84 425.18 171.84 425.82 177.41" style="fill: rgb(235, 235, 235); opacity: 0.5; transform-origin: 250.16px 174.625px;" class="animable"></polygon></g><path d="M408.17,325.94H349.83l-5.56-96.61a4,4,0,0,1,4.09-4.33H398a4.64,4.64,0,0,1,4.58,4.33Z" style="fill: rgb(230, 230, 230); transform-origin: 376.213px 275.469px;" id="elrhid4vlgdj9" class="animable"></path><path d="M414.05,325.94H355.72l-5.56-96.61a4,4,0,0,1,4.08-4.33h49.67a4.64,4.64,0,0,1,4.58,4.33Z" style="fill: rgb(245, 245, 245); transform-origin: 382.098px 275.469px;" id="el8rqx4gdx10o" class="animable"></path><path d="M356.89,313.89H397.5a0,0,0,0,1,0,0v12a0,0,0,0,1,0,0H352.55a0,0,0,0,1,0,0v-7.72A4.33,4.33,0,0,1,356.89,313.89Z" style="fill: rgb(230, 230, 230); transform-origin: 375.025px 319.89px;" id="elab7fxzzlqq" class="animable"></path><path d="M388.55,313.89h51.7a4.33,4.33,0,0,1,4.33,4.33v7.72a0,0,0,0,1,0,0H384.21a0,0,0,0,1,0,0v-7.72A4.33,4.33,0,0,1,388.55,313.89Z" style="fill: rgb(245, 245, 245); transform-origin: 414.395px 319.915px;" id="elhcq8sksx9s7" class="animable"></path><rect x="349.83" y="325.94" width="4" height="56.46" style="fill: rgb(230, 230, 230); transform-origin: 351.83px 354.17px;" id="elfkworn2s1" class="animable"></rect><rect x="379.19" y="325.94" width="4" height="56.46" style="fill: rgb(230, 230, 230); transform-origin: 381.19px 354.17px;" id="elawqz5tp3qqo" class="animable"></rect><rect x="410.31" y="325.94" width="4" height="56.46" style="fill: rgb(230, 230, 230); transform-origin: 412.31px 354.17px;" id="elfxe2elripjm" class="animable"></rect><rect x="439.66" y="325.94" width="4" height="56.46" style="fill: rgb(230, 230, 230); transform-origin: 441.66px 354.17px;" id="el85kqj621xem" class="animable"></rect><path d="M333.5,325.94H275.17l-5.57-96.61a4.06,4.06,0,0,1,4.09-4.33h49.67a4.65,4.65,0,0,1,4.58,4.33Z" style="fill: rgb(230, 230, 230); transform-origin: 301.546px 275.47px;" id="el06642qjpnhsc" class="animable"></path><path d="M339.39,325.94H281.05l-5.56-96.61a4.05,4.05,0,0,1,4.09-4.33h49.66a4.65,4.65,0,0,1,4.59,4.33Z" style="fill: rgb(245, 245, 245); transform-origin: 307.435px 275.47px;" id="el5xk1z6gsga6" class="animable"></path><path d="M282.22,313.89h40.61a0,0,0,0,1,0,0v12a0,0,0,0,1,0,0H277.89a0,0,0,0,1,0,0v-7.72A4.33,4.33,0,0,1,282.22,313.89Z" style="fill: rgb(230, 230, 230); transform-origin: 300.36px 319.89px;" id="elsvrf897x6jk" class="animable"></path><path d="M313.88,313.89h51.7a4.33,4.33,0,0,1,4.33,4.33v7.72a0,0,0,0,1,0,0H309.55a0,0,0,0,1,0,0v-7.72A4.33,4.33,0,0,1,313.88,313.89Z" style="fill: rgb(245, 245, 245); transform-origin: 339.73px 319.915px;" id="ela286lq6y4sa" class="animable"></path><rect x="275.17" y="325.94" width="4" height="56.46" style="fill: rgb(230, 230, 230); transform-origin: 277.17px 354.17px;" id="elrpuvuy6v7ej" class="animable"></rect><rect x="304.52" y="325.94" width="4" height="56.46" style="fill: rgb(230, 230, 230); transform-origin: 306.52px 354.17px;" id="el7bokdhibprv" class="animable"></rect><rect x="335.64" y="325.94" width="4" height="56.46" style="fill: rgb(230, 230, 230); transform-origin: 337.64px 354.17px;" id="elutgrrqu5kl" class="animable"></rect><rect x="364.99" y="325.94" width="4" height="56.46" style="fill: rgb(230, 230, 230); transform-origin: 366.99px 354.17px;" id="elt56tgdn517" class="animable"></rect></g><g id="freepik--Shadow--inject-62" class="animable" style="transform-origin: 250px 416.24px;"><ellipse id="freepik--path--inject-62" cx="250" cy="416.24" rx="193.89" ry="11.32" style="fill: rgb(245, 245, 245); transform-origin: 250px 416.24px;" class="animable"></ellipse></g><g id="freepik--Character--inject-62" class="animable" style="transform-origin: 312.683px 261.186px;"><polygon points="286.59 402.44 279 399.81 283.06 381.55 290.65 384.18 286.59 402.44" style="fill: rgb(181, 91, 82); transform-origin: 284.825px 391.995px;" id="elevcj8ceihq" class="animable"></polygon><polygon points="349.66 408.04 341.63 408.04 339.56 389.45 347.59 389.45 349.66 408.04" style="fill: rgb(181, 91, 82); transform-origin: 344.61px 398.745px;" id="ells1jpdr2cx" class="animable"></polygon><path d="M341,407.11h9.19a.7.7,0,0,1,.68.55l1.59,7.14a1.18,1.18,0,0,1-1.18,1.42c-3.15-.05-5.44-.24-9.41-.24-2.44,0-9.2.26-12.57.26s-3.81-3.33-2.43-3.64c6.18-1.35,10.84-3.21,12.82-5A2,2,0,0,1,341,407.11Z" style="fill: rgb(38, 50, 56); transform-origin: 339.311px 411.675px;" id="elyl9e1dlsgo" class="animable"></path><path d="M279.11,399l8.28,2.87a.7.7,0,0,1,.47.74l-.84,7.26a1.16,1.16,0,0,1-1.55,1c-3-1.09-7.23-2.76-11-4.06-4.39-1.52-6.48-1.85-11.63-3.63-3.11-1.08-2.23-4.44-.82-4.37,6.42.35,8.83,1.56,15.05.17A3.78,3.78,0,0,1,279.11,399Z" style="fill: rgb(38, 50, 56); transform-origin: 274.3px 404.874px;" id="el61hu69dqj7u" class="animable"></path><path d="M326.65,167.75c-2.28,2.44-4.5,4.66-6.84,6.89s-4.7,4.37-7.15,6.49a120.66,120.66,0,0,1-15.89,11.77,52.2,52.2,0,0,1-4.64,2.5c-.81.4-1.68.77-2.55,1.13l-1.37.5c-.48.16-1,.31-1.52.45a22,22,0,0,1-12.46-.41,27.67,27.67,0,0,1-9.74-5.73,34.63,34.63,0,0,1-3.67-3.81c-.56-.67-1.09-1.37-1.59-2.08s-.94-1.4-1.47-2.28l5.52-4.19,1.58,1.26c.56.44,1.13.85,1.7,1.26a37.64,37.64,0,0,0,3.5,2.2,21.32,21.32,0,0,0,7,2.49,11.52,11.52,0,0,0,6-.69l.71-.3.8-.37c.55-.28,1.1-.55,1.68-.89,1.14-.63,2.29-1.4,3.46-2.18,2.33-1.58,4.65-3.37,6.93-5.26s4.54-3.85,6.78-5.88,4.44-4.1,6.63-6.19,4.4-4.26,6.45-6.32Z" style="fill: rgb(38, 50, 56); transform-origin: 292.205px 178.149px;" id="elkl6po97x26a" class="animable"></path><path d="M263.33,179.61l-5-7.77-5,9.7s5.8,6.11,8.67,3.32Z" style="fill: rgb(181, 91, 82); transform-origin: 258.33px 178.715px;" id="elbcv6fkre4s5" class="animable"></path><polygon points="252.28 170.51 249.59 177.34 253.25 181.54 258.29 171.84 252.28 170.51" style="fill: rgb(181, 91, 82); transform-origin: 253.94px 176.025px;" id="eld4itfalmh6c" class="animable"></polygon><g id="elq8cs4t786g"><polygon points="283.06 381.56 280.97 390.97 288.56 393.6 290.65 384.18 283.06 381.56" style="opacity: 0.2; transform-origin: 285.81px 387.58px;" class="animable"></polygon></g><g id="elvonvqtqvb"><polygon points="347.59 389.46 339.56 389.46 340.63 399.04 348.66 399.04 347.59 389.46" style="opacity: 0.2; transform-origin: 344.11px 394.25px;" class="animable"></polygon></g><path d="M359.87,167.44c-8.21,27.78-7.34,57.27-8.42,63.26-6.24-.83-33-4.75-45.85-6.48-2-32.18,5.76-53.74,9.28-63.31a10.17,10.17,0,0,1,9.07-6.66h.11c1.18-.05,2.45-.08,3.77-.07.73,0,1.47,0,2.22,0a159.1,159.1,0,0,1,18.09,2.44c1.13.21,2.28.45,3.39.7s2,.49,3,.74l.13,0A7.42,7.42,0,0,1,359.87,167.44Z" style="fill: rgb(38, 50, 56); transform-origin: 332.74px 192.439px;" id="elvz2gajw157" class="animable"></path><polygon points="338.1 176.57 338 178.01 347.42 179.57 347.72 178.39 338.1 176.57" style="fill: rgb(255, 255, 255); transform-origin: 342.86px 178.07px;" id="elzw9dbxjyai" class="animable"></polygon><g id="el37na93elkps"><path d="M330.05,154.23c-2.16,2.26-4.7,21.1-1.55,29.85,5.32-8.83,16-24.69,19.63-27.41A158.94,158.94,0,0,0,330.05,154.23Z" style="fill: rgb(255, 255, 255); opacity: 0.3; transform-origin: 337.576px 169.155px;" class="animable"></path></g><path d="M349.09,136.06c-1.92,5.66-4.5,16.17-.95,20.6-1.34,1.32-6.9,2.43-12,1.65-4.19-.64-6.19-2.46-6.08-4.08,6.7-.68,7.18-5.52,6.66-10.19Z" style="fill: rgb(181, 91, 82); transform-origin: 339.573px 147.314px;" id="elaxdhxojgn5k" class="animable"></path><g id="el0lpn0f4omcg"><path d="M344,139.31,336.72,144a19.24,19.24,0,0,1,.12,3.29c2.53,0,6.3-2.29,6.92-4.85A8.87,8.87,0,0,0,344,139.31Z" style="opacity: 0.2; transform-origin: 340.383px 143.3px;" class="animable"></path></g><path d="M331.68,132.07c-1.12-2.54-1.54-7.49.57-13.87,1.72-5.2,7.17-3.52,10.94-2.61s2.38,6-.36,9.71C339.89,129.25,331.68,132.07,331.68,132.07Z" style="fill: rgb(38, 50, 56); transform-origin: 338.124px 123.33px;" id="elxfrtx16z6zb" class="animable"></path><path d="M353.52,128.05c-2.3,7.63-3.25,12.21-8.1,15.26-7.28,4.59-16-1.2-16-9.36,0-7.35,3.73-18.59,12-19.88A10.86,10.86,0,0,1,353.52,128.05Z" style="fill: rgb(181, 91, 82); transform-origin: 341.72px 129.431px;" id="eloh5h26wlll" class="animable"></path><path d="M348.35,136c-1.34-2.43-1.88-8.82-.6-13.86,1-3.82,7.22-4.69,10.67-2.92,4.11,2.11,3.34,6.25.25,9.63C355.33,132.51,348.35,136,348.35,136Z" style="fill: rgb(38, 50, 56); transform-origin: 354.135px 127.171px;" id="elgkuuvvffud" class="animable"></path><path d="M357.6,121.56c3.08-.18,5.12-4.27,2.62-6.23-2.94-2.3-7,0-10.7-5.09-3.47-4.78-12.08-5.61-15.32-1.32-1.86,2.47-.2,3.46-5.19,6.46-2.91,1.75-2,4.72-1.25,6.18-.08-1.1.38-3.93,3.09-4.54,2.27-.51,3.61,1.45,5.17-.31,0,0,5.28,4.85,15.28,5.62C356.87,122.76,357.6,121.56,357.6,121.56Z" style="fill: rgb(38, 50, 56); transform-origin: 344.175px 114.277px;" id="elub2e93gurv9" class="animable"></path><path d="M355,137.4a7.61,7.61,0,0,1-5.36,2.18c-2.65,0-3.23-2.6-1.87-4.71,1.23-1.9,4.09-4.18,6.46-3.12S356.74,135.66,355,137.4Z" style="fill: rgb(181, 91, 82); transform-origin: 351.618px 135.53px;" id="elqcyzyj3sz7" class="animable"></path><path d="M278.73,388.23l12.85,4.44s12.58-49.58,16.52-74.28c1.2-7.52,3.88-17.92,7.12-29,4.09-14,9-29.08,13.09-40.89,4.25-12.44,7.44-21.23,7.44-21.23l-28-3.77s-18.69,63.59-22,87.87C282.4,336.59,278.73,388.23,278.73,388.23Z" style="fill: rgb(38, 50, 56); transform-origin: 307.24px 308.085px;" id="el15sv6jdg01w" class="animable"></path><g id="elqreong0eojr"><path d="M315.22,289.37c4.09-14,9-29.08,13.09-40.89L325.8,242C318.29,249.84,314.77,275.36,315.22,289.37Z" style="opacity: 0.2; transform-origin: 321.746px 265.685px;" class="animable"></path></g><path d="M322.87,225.51s-1.38,68.78.51,92.22c2.06,25.67,13.54,79.46,13.54,79.46h14.71s-2.05-49.34-5.06-74.27c-3.43-28.4,3.76-93.71,3.76-93.71Z" style="fill: rgb(38, 50, 56); transform-origin: 337.007px 311.35px;" id="elo72tp7wa24p" class="animable"></path><polygon points="335.16 397.5 352.48 397.5 352.48 392.33 333.99 392 335.16 397.5" style="fill: rgb(38, 50, 56); transform-origin: 343.235px 394.75px;" id="elgtormprr2ss" class="animable"></polygon><polygon points="277.01 387.97 292.32 393.27 294.03 388.33 277.71 381.56 277.01 387.97" style="fill: rgb(38, 50, 56); transform-origin: 285.52px 387.415px;" id="elp5bx8awt01" class="animable"></polygon><path d="M341.27,127.45c-.15.63-.6,1.06-1,1s-.63-.68-.48-1.31.6-1.06,1-1S341.42,126.82,341.27,127.45Z" style="fill: rgb(38, 50, 56); transform-origin: 340.53px 127.295px;" id="el2rf9hybt2uo" class="animable"></path><path d="M334.15,125.77c-.15.63-.6,1.07-1,1s-.62-.69-.47-1.32.6-1.06,1-1S334.3,125.14,334.15,125.77Z" style="fill: rgb(38, 50, 56); transform-origin: 333.415px 125.611px;" id="elqegij7dc03" class="animable"></path><path d="M336.34,126.62a23.13,23.13,0,0,1-4.28,4.68,3.74,3.74,0,0,0,2.88,1.27Z" style="fill: rgb(160, 39, 36); transform-origin: 334.2px 129.595px;" id="elbkmpzwc45sp" class="animable"></path><path d="M337.2,134.89a5.35,5.35,0,0,0,4-1.23.19.19,0,0,0-.26-.28,5.12,5.12,0,0,1-4.53,1,.19.19,0,0,0-.23.14.2.2,0,0,0,.14.23C336.65,134.81,336.93,134.86,337.2,134.89Z" style="fill: rgb(38, 50, 56); transform-origin: 338.719px 134.124px;" id="elnfyvbbzyjsh" class="animable"></path><path d="M344,125.66a.32.32,0,0,0,.19,0,.37.37,0,0,0,.19-.5,3.76,3.76,0,0,0-2.65-2.23.38.38,0,0,0-.44.31.39.39,0,0,0,.32.44h0a3,3,0,0,1,2.08,1.79A.37.37,0,0,0,344,125.66Z" style="fill: rgb(38, 50, 56); transform-origin: 342.851px 124.299px;" id="ely8merjocjhr" class="animable"></path><path d="M331.65,122.6a.38.38,0,0,0,.34-.14,3,3,0,0,1,2.48-1.18.37.37,0,0,0,.41-.34.39.39,0,0,0-.33-.42A3.8,3.8,0,0,0,331.4,122a.38.38,0,0,0,.05.54A.39.39,0,0,0,331.65,122.6Z" style="fill: rgb(38, 50, 56); transform-origin: 333.096px 121.56px;" id="elbbzkz09187k" class="animable"></path><path d="M338.33,408.52a9.76,9.76,0,0,0,2.1-.29.2.2,0,0,0,.15-.16.21.21,0,0,0-.09-.19c-.29-.18-2.88-1.77-3.77-1.32a.62.62,0,0,0-.33.54,1.17,1.17,0,0,0,.4,1A2.44,2.44,0,0,0,338.33,408.52Zm1.55-.56c-1.36.27-2.41.22-2.85-.15a.76.76,0,0,1-.26-.68.25.25,0,0,1,.12-.23C337.35,406.66,338.83,407.35,339.88,408Z" style="fill: rgb(64, 123, 255); transform-origin: 338.483px 407.503px;" id="elzh9v3ootil" class="animable"></path><path d="M340.39,408.23a.19.19,0,0,0,.1,0,.2.2,0,0,0,.09-.17c0-.1-.2-2.42-1.14-3.18a1,1,0,0,0-.81-.24h0a.61.61,0,0,0-.6.49c-.17.9,1.44,2.66,2.27,3.11ZM338.77,405a.62.62,0,0,1,.43.17,4.49,4.49,0,0,1,.95,2.51c-.82-.63-1.85-2-1.75-2.48,0-.05,0-.17.28-.2h.09Z" style="fill: rgb(64, 123, 255); transform-origin: 339.299px 406.435px;" id="elmo5zf9sklo" class="animable"></path><path d="M278,399.74a.19.19,0,0,0,.17-.1.2.2,0,0,0,0-.22c-.28-.29-2.8-2.9-3.9-2.7a.62.62,0,0,0-.46.37h0a1.08,1.08,0,0,0,0,1c.58,1,2.86,1.48,4.16,1.66Zm-3.62-2.65c.64,0,2.08,1.2,3.08,2.19-1.77-.3-3-.81-3.31-1.38a.68.68,0,0,1,0-.65.22.22,0,0,1,.18-.16Z" style="fill: rgb(64, 123, 255); transform-origin: 275.945px 398.23px;" id="elmsfhg1hia7" class="animable"></path><path d="M278,399.74h.05a.22.22,0,0,0,.14-.14c0-.09.52-2.2-.17-3.33a1.4,1.4,0,0,0-.89-.65h0c-.51-.12-.74.08-.84.27-.44.81.81,3.07,1.58,3.8A.17.17,0,0,0,278,399.74ZM276.85,396l.19,0h0a1,1,0,0,1,.65.48,4.39,4.39,0,0,1,.2,2.68c-.74-.88-1.53-2.6-1.27-3.08A.23.23,0,0,1,276.85,396Zm.24-.16h0Z" style="fill: rgb(64, 123, 255); transform-origin: 277.288px 397.662px;" id="elb9zzq59zyxb" class="animable"></path><path d="M357.5,159.65c1.07,1.44,2,2.72,2.9,4.11s1.8,2.74,2.68,4.13q2.61,4.17,4.91,8.59a95.77,95.77,0,0,1,4.21,9.17,56.19,56.19,0,0,1,3.06,10.18c.18.92.32,1.87.43,2.83,0,.07,0,.37.06.56s0,.44,0,.63c0,.41,0,.8,0,1.16a15.8,15.8,0,0,1-.28,2,23.3,23.3,0,0,1-2.21,5.84,56.51,56.51,0,0,1-5.73,8.68c-2.07,2.62-4.22,5.08-6.46,7.43s-4.54,4.59-7.05,6.76l-5.16-4.63c3.37-5.14,6.85-10.36,9.79-15.56a58.41,58.41,0,0,0,3.76-7.64,12.81,12.81,0,0,0,.82-3.08,1.15,1.15,0,0,0,0-.35s0,0,0,0a.2.2,0,0,0,0,0s0,.09,0,0c-.13-.59-.26-1.19-.44-1.81a54,54,0,0,0-2.93-7.72c-1.23-2.6-2.58-5.23-4.06-7.82s-3-5.16-4.63-7.72q-1.2-1.9-2.45-3.8l-2.47-3.67Z" style="fill: rgb(38, 50, 56); transform-origin: 361.013px 195.685px;" id="elx0jrjzsp7nc" class="animable"></path><path d="M351,226.21,343,228.65l7.18,7.62s6.11-3.64,4.54-7.09Z" style="fill: rgb(181, 91, 82); transform-origin: 348.989px 231.24px;" id="el3n70wd89x4d" class="animable"></path><polygon points="339.75 234.44 345.55 240.26 350.22 236.27 343.04 228.66 339.75 234.44" style="fill: rgb(181, 91, 82); transform-origin: 344.985px 234.46px;" id="el8t1je2onbes" class="animable"></polygon><g id="eleapz19paqfe"><path d="M321.74,226.9s1.53-10.42,4.18-15.49c.55,4.44,2.41,16.11,2.41,16.11Z" style="fill: rgb(255, 255, 255); opacity: 0.3; transform-origin: 325.035px 219.465px;" class="animable"></path></g></g><g id="freepik--Board--inject-62" class="animable animator-active" style="transform-origin: 189.539px 232.28px;"><g id="el9puy0u2gpc9"><rect x="88.05" y="123.33" width="1" height="24" style="fill: rgb(64, 123, 255); transform-origin: 88.55px 135.33px; transform: rotate(-1.11deg);" class="animable"></rect></g><g id="el7bqzqvrqhf6"><rect x="88.53" y="155.01" width="1" height="10.32" style="fill: rgb(64, 123, 255); transform-origin: 89.03px 160.17px; transform: rotate(-1.11deg);" class="animable"></rect></g><polygon points="286.12 98.89 90.85 98.89 95.99 365.67 291.26 365.67 286.12 98.89" style="fill: rgb(64, 123, 255); transform-origin: 191.055px 232.28px;" id="elb4ck8zxg02" class="animable"></polygon><g id="elfkcv3uy6ren"><polygon points="275.38 107.67 102.85 107.67 107.65 356.24 280.17 356.24 275.38 107.67" style="fill: rgb(255, 255, 255); opacity: 0.8; transform-origin: 191.51px 231.955px;" class="animable"></polygon></g><polygon points="275.35 106.42 102.83 106.42 109.84 354.98 282.37 354.98 275.35 106.42" style="fill: rgb(255, 255, 255); transform-origin: 192.6px 230.7px;" id="elpwxbejg9o" class="animable"></polygon><g id="eltserkr2bmw8"><path d="M152.88,157.31l9.25-27.56a30.43,30.43,0,0,1,20.07,27.56,28.41,28.41,0,0,1-23.41,28.88Z" style="fill: rgb(64, 123, 255); opacity: 0.2; transform-origin: 167.547px 157.97px;" class="animable"></path></g><path d="M152.88,157.31l5.91,28.88a29.87,29.87,0,0,1-5.08.44,30.48,30.48,0,0,1-30.15-29.32A28.48,28.48,0,0,1,152.05,128a29.76,29.76,0,0,1,10.08,1.77Z" style="fill: rgb(64, 123, 255); transform-origin: 142.839px 157.315px;" id="el15yx0yiu5he" class="animable"></path><g id="el72tu9u7ehsf"><path d="M226,157.31,225.27,128a30.24,30.24,0,0,1,20.89,8.59c11.7,11.38,12.23,30.1,1.17,41.47s-29.77,11.38-41.47,0a30.31,30.31,0,0,1-8.58-15.64Z" style="fill: rgb(64, 123, 255); opacity: 0.2; transform-origin: 226.286px 157.296px;" class="animable"></path></g><path d="M226,157.31l-28.73,5.09a28.41,28.41,0,0,1,30.09-34.33Z" style="fill: rgb(64, 123, 255); transform-origin: 211.993px 145.187px;" id="el2w3izz62svt" class="animable"></path><polygon points="262.06 332.06 127.19 332.06 125.42 269.62 126.49 269.61 128.22 330.99 262.03 330.99 262.06 332.06" style="fill: rgb(64, 123, 255); transform-origin: 193.74px 300.835px;" id="el4r60vfmw0l4" class="animable"></polygon><path d="M262,330.32a1.23,1.23,0,0,1,1.22,1.2,1.16,1.16,0,0,1-1.17,1.2,1.23,1.23,0,0,1-1.23-1.2A1.18,1.18,0,0,1,262,330.32Z" style="fill: rgb(64, 123, 255); transform-origin: 262.02px 331.52px;" id="elw2h7fhp6pug" class="animable"></path><path d="M127.16,269.66a1.24,1.24,0,0,0-1.24-1.19,1.17,1.17,0,0,0-1.16,1.21,1.22,1.22,0,0,0,1.23,1.19A1.17,1.17,0,0,0,127.16,269.66Z" style="fill: rgb(64, 123, 255); transform-origin: 125.96px 269.67px;" id="elei5xsgm8j1n" class="animable"></path><polygon points="131.93 327.94 131.16 327.19 147.09 310.8 156.61 310.8 160.97 306.32 174.68 306.32 203.33 276.84 210.09 276.84 219.9 286.38 226 286.38 243.92 267.94 260.25 267.94 260.27 269 244.39 269 226.47 287.44 219.48 287.44 209.67 277.9 203.79 277.9 175.14 307.38 161.43 307.38 157.08 311.87 147.55 311.87 131.93 327.94" style="fill: rgb(64, 123, 255); transform-origin: 195.715px 297.94px;" id="elythj5cqg9qb" class="animable"></polygon><path d="M132.46,328.37a1.21,1.21,0,1,1,0-1.7A1.21,1.21,0,0,1,132.46,328.37Z" style="fill: rgb(64, 123, 255); transform-origin: 131.599px 327.52px;" id="elgz2c6x7jji7" class="animable"></path><path d="M260.23,269.67a1.17,1.17,0,0,0,1.17-1.2,1.23,1.23,0,0,0-1.22-1.2,1.18,1.18,0,0,0-1.18,1.2A1.24,1.24,0,0,0,260.23,269.67Z" style="fill: rgb(64, 123, 255); transform-origin: 260.2px 268.47px;" id="elvnbr2l4q58m" class="animable"></path><g id="elszws6k5g128"><g style="opacity: 0.2; transform-origin: 196.503px 305.333px;" class="animable"><polygon points="131.76 322.03 130.99 321.28 150 301.71 165.61 301.71 176.19 312.01 188.02 312.01 198.35 301.37 211.63 301.37 215.96 296.92 228.77 296.92 237.58 287.85 241.9 287.85 262.01 307.42 261.28 308.17 241.48 288.92 238.04 288.92 229.23 297.99 216.43 297.99 212.1 302.44 198.81 302.44 188.48 313.07 175.78 313.07 165.19 302.78 150.47 302.78 131.76 322.03" style="fill: rgb(64, 123, 255); transform-origin: 196.5px 304.94px;" id="el7gql8rbx834" class="animable"></polygon><path d="M132.29,322.45a1.21,1.21,0,1,1,0-1.69A1.19,1.19,0,0,1,132.29,322.45Z" style="fill: rgb(64, 123, 255); transform-origin: 131.428px 321.605px;" id="el7pwkdqudu3q" class="animable"></path><path d="M260.77,308.61a1.19,1.19,0,1,0,0-1.7A1.21,1.21,0,0,0,260.77,308.61Z" style="fill: rgb(64, 123, 255); transform-origin: 261.607px 307.76px;" id="el18o23nof79mi" class="animable"></path></g></g><polygon points="138.83 218.97 124.53 218.97 124.12 204.67 138.42 204.67 138.83 218.97" style="fill: rgb(64, 123, 255); transform-origin: 131.475px 211.82px;" id="el4ebz2crendr" class="animable"></polygon><polygon points="212.46 214.41 147.25 214.41 147.1 209.23 212.31 209.23 212.46 214.41" style="fill: rgb(224, 224, 224); transform-origin: 179.78px 211.82px;" id="elgx6z5vhivrg" class="animable"></polygon><polygon points="256.89 214.41 220.61 214.41 220.46 209.23 256.74 209.23 256.89 214.41" style="fill: rgb(224, 224, 224); transform-origin: 238.675px 211.82px;" id="el3ghwhb619lt" class="animable"></polygon><polygon points="185.4 236.97 147.88 236.97 147.74 231.79 185.25 231.79 185.4 236.97" style="fill: rgb(224, 224, 224); transform-origin: 166.57px 234.38px;" id="elvmulzn113qm" class="animable"></polygon><polygon points="240.79 236.97 193.55 236.97 193.4 231.79 240.65 231.79 240.79 236.97" style="fill: rgb(224, 224, 224); transform-origin: 217.095px 234.38px;" id="elsnfgb5p20in" class="animable"></polygon><g id="elhw59msb06t"><polygon points="139.46 241.53 125.16 241.53 124.76 227.23 139.06 227.23 139.46 241.53" style="fill: rgb(64, 123, 255); opacity: 0.2; transform-origin: 132.11px 234.38px;" class="animable"></polygon></g></g><g id="freepik--Pointer--inject-62" class="animable" style="transform-origin: 300.425px 207.905px;"><polygon points="259.25 183.65 342.09 230.33 341.05 232.16 258.76 184.52 259.25 183.65" style="fill: rgb(224, 224, 224); transform-origin: 300.425px 207.905px;" id="el0u0kevvuws7" class="animable"></polygon></g><defs>     <filter id="active" height="200%">         <feMorphology in="SourceAlpha" result="DILATED" operator="dilate" radius="2"></feMorphology>                <feFlood flood-color="#32DFEC" flood-opacity="1" result="PINK"></feFlood>        <feComposite in="PINK" in2="DILATED" operator="in" result="OUTLINE"></feComposite>        <feMerge>            <feMergeNode in="OUTLINE"></feMergeNode>            <feMergeNode in="SourceGraphic"></feMergeNode>        </feMerge>    </filter>    <filter id="hover" height="200%">        <feMorphology in="SourceAlpha" result="DILATED" operator="dilate" radius="2"></feMorphology>                <feFlood flood-color="#ff0000" flood-opacity="0.5" result="PINK"></feFlood>        <feComposite in="PINK" in2="DILATED" operator="in" result="OUTLINE"></feComposite>        <feMerge>            <feMergeNode in="OUTLINE"></feMergeNode>            <feMergeNode in="SourceGraphic"></feMergeNode>        </feMerge>            <feColorMatrix type="matrix" values="0   0   0   0   0                0   1   0   0   0                0   0   0   0   0                0   0   0   1   0 "></feColorMatrix>    </filter></defs></svg>